<?xml version="1.0" encoding="utf-8"?>
<!-- Generator: Adobe Illustrator 19.2.0, SVG Export Plug-In . SVG Version: 6.00 Build 0)  -->
<svg version="1.1" id="Layer_1" xmlns="http://www.w3.org/2000/svg" xmlns:xlink="http://www.w3.org/1999/xlink" x="0px" y="0px"
	 viewBox="0 0 500 500" style="enable-background:new 0 0 500 500;" xml:space="preserve">
<style type="text/css">
	.st0{fill:#ECF4F7;}
	.st1{fill:#1C1D21;}
	.st2{fill:#83E1E5;}
	.st3{fill:#AAB1BA;}
	.st4{fill:none;stroke:#1C1D21;stroke-width:10;stroke-linecap:round;stroke-linejoin:round;stroke-miterlimit:10;}
	.st5{fill:#FDDF7F;}
	.st6{fill:#FFFFFF;}
</style>
<g>
	<g>
		<g>
			<path class="st5" d="M250,312.2c-58.8,0-106.7-47.9-106.7-106.7S191.2,98.8,250,98.8c58.8,0,106.7,47.9,106.7,106.7
				C356.7,264.4,308.8,312.2,250,312.2z"/>
		</g>
	</g>
	<g>
		<g>
			<path class="st1" d="M234.1,105c-2.4,0-4.6-1.8-4.9-4.3c-0.4-2.7,1.5-5.3,4.2-5.7c5.5-0.8,11.1-1.2,16.7-1.2c2.8,0,5,2.2,5,5
				c0,2.8-2.2,5-5,5c-5.1,0-10.2,0.4-15.2,1.1C234.6,105,234.3,105,234.1,105z"/>
		</g>
	</g>
	<g>
		<g>
			<path class="st1" d="M143.3,210.5c-2.8,0-5-2.2-5-5c0-43.6,25.7-83.5,65.5-101.7c2.5-1.1,5.5,0,6.6,2.5c1.1,2.5,0,5.5-2.5,6.6
				c-36.2,16.5-59.6,52.9-59.6,92.6C148.3,208.3,146,210.5,143.3,210.5z"/>
		</g>
	</g>
	<g>
		<g>
			<path class="st1" d="M250,428.3c-12.5,0-24.9-1.5-36.9-4.5c-9.9-2.4-16.8-11.2-16.8-21.4v-17.2c0-19.6-10.1-37.5-27.1-48
				c-21.9-13.5-40.2-32.5-52.9-54.8c-13.1-23-20.1-49.3-20.1-76c0-84.8,69-153.8,153.8-153.8s153.8,69,153.8,153.8
				c0,26.7-6.9,53-20.1,76c-12.7,22.3-31,41.3-52.9,54.8c-17,10.5-27.1,28.5-27.1,48v17.2c0,10.2-6.9,19-16.8,21.4
				C274.9,426.8,262.5,428.3,250,428.3z M250,62.6c-79.3,0-143.8,64.5-143.8,143.8c0,50.2,25.5,95.9,68.2,122.3
				c20,12.3,31.9,33.5,31.9,56.5v17.2c0,5.5,3.8,10.3,9.2,11.7c22.5,5.5,46.6,5.5,69,0c5.4-1.3,9.2-6.1,9.2-11.7v-17.2
				c0-23,11.9-44.2,31.9-56.5c42.7-26.4,68.2-72.2,68.2-122.3C393.8,127.1,329.3,62.6,250,62.6z"/>
		</g>
	</g>
	<g>
		<g>
			<g>
				<path class="st1" d="M250,464c-12.1,0-24.2-1.2-36-3.6c-2.7-0.6-4.4-3.2-3.9-5.9c0.6-2.7,3.2-4.4,5.9-3.9
					c22.2,4.6,45.7,4.6,67.9,0c2.7-0.6,5.3,1.2,5.9,3.9c0.6,2.7-1.2,5.3-3.9,5.9C274.2,462.8,262.1,464,250,464z"/>
			</g>
		</g>
	</g>
	<g>
		<g>
			<path class="st1" d="M259.2,500h-18.3c-17,0-30.8-13.8-30.8-30.8v-49.7c0-2.8,2.2-5,5-5c2.8,0,5,2.2,5,5v49.7
				c0,11.5,9.3,20.8,20.8,20.8h18.3c11.5,0,20.8-9.3,20.8-20.8v-49.7c0-2.8,2.2-5,5-5c2.8,0,5,2.2,5,5v49.7
				C290,486.2,276.1,500,259.2,500z"/>
		</g>
	</g>
	<g>
		<g>
			<g>
				<path class="st1" d="M250,464c-12.1,0-24.2-1.2-36-3.6c-2.7-0.6-4.4-3.2-3.9-5.9c0.6-2.7,3.2-4.4,5.9-3.9
					c22.2,4.6,45.7,4.6,67.9,0c2.7-0.6,5.3,1.2,5.9,3.9c0.6,2.7-1.2,5.3-3.9,5.9C274.2,462.8,262.1,464,250,464z"/>
			</g>
		</g>
	</g>
	<g>
		<g>
			<g>
				<g>
					<path class="st1" d="M233,424.5c-2.8,0-5-2.2-5-5V213.6c0-2.8,2.2-5,5-5c2.8,0,5,2.2,5,5v205.9
						C238,422.3,235.7,424.5,233,424.5z"/>
				</g>
			</g>
			<g>
				<g>
					<circle class="st2" cx="214.3" cy="213.6" r="18.7"/>
				</g>
			</g>
			<g>
				<g>
					<path class="st1" d="M214.3,237.4c-13.1,0-23.7-10.6-23.7-23.7c0-13.1,10.6-23.7,23.7-23.7c13.1,0,23.7,10.6,23.7,23.7
						C238,226.7,227.3,237.4,214.3,237.4z M214.3,199.9c-7.6,0-13.7,6.1-13.7,13.7c0,7.6,6.1,13.7,13.7,13.7
						c7.6,0,13.7-6.1,13.7-13.7C228,206.1,221.8,199.9,214.3,199.9z"/>
				</g>
			</g>
		</g>
		<g>
			<g>
				<g>
					<path class="st1" d="M267,424.5c-2.8,0-5-2.2-5-5V213.6c0-2.8,2.2-5,5-5c2.8,0,5,2.2,5,5v205.9
						C272,422.3,269.8,424.5,267,424.5z"/>
				</g>
			</g>
			<g>
				<g>
					<circle class="st2" cx="285.7" cy="213.6" r="18.7"/>
				</g>
			</g>
			<g>
				<g>
					<path class="st1" d="M285.7,237.4c-13.1,0-23.7-10.6-23.7-23.7c0-13.1,10.6-23.7,23.7-23.7c13.1,0,23.7,10.6,23.7,23.7
						C309.4,226.7,298.8,237.4,285.7,237.4z M285.7,199.9c-7.6,0-13.7,6.1-13.7,13.7c0,7.6,6.1,13.7,13.7,13.7
						c7.6,0,13.7-6.1,13.7-13.7C299.4,206.1,293.3,199.9,285.7,199.9z"/>
				</g>
			</g>
		</g>
	</g>
	<g>
		<g>
			<g>
				<path class="st1" d="M250,37.7c-2.8,0-5-2.2-5-5V5c0-2.8,2.2-5,5-5s5,2.2,5,5v27.7C255,35.5,252.8,37.7,250,37.7z"/>
			</g>
		</g>
		<g>
			<g>
				<path class="st1" d="M126.4,76.9c-1.3,0-2.6-0.5-3.5-1.5l-19.6-19.6c-2-2-2-5.1,0-7.1c2-2,5.1-2,7.1,0L130,68.4c2,2,2,5.1,0,7.1
					C129,76.4,127.7,76.9,126.4,76.9z"/>
			</g>
		</g>
		<g>
			<g>
				<path class="st1" d="M71.4,199.9H43.7c-2.8,0-5-2.2-5-5c0-2.8,2.2-5,5-5h27.7c2.8,0,5,2.2,5,5C76.4,197.7,74.1,199.9,71.4,199.9
					z"/>
			</g>
		</g>
	</g>
	<g>
		<g>
			<path class="st1" d="M373.6,76.9c-1.3,0-2.6-0.5-3.5-1.5c-2-2-2-5.1,0-7.1l19.6-19.6c2-2,5.1-2,7.1,0c2,2,2,5.1,0,7.1l-19.6,19.6
				C376.1,76.4,374.8,76.9,373.6,76.9z"/>
		</g>
	</g>
	<g>
		<g>
			<path class="st1" d="M456.3,199.9h-27.7c-2.8,0-5-2.2-5-5c0-2.8,2.2-5,5-5h27.7c2.8,0,5,2.2,5,5
				C461.3,197.7,459.1,199.9,456.3,199.9z"/>
		</g>
	</g>
</g>
</svg>
