<svg xmlns="http://www.w3.org/2000/svg" viewBox="0 0 88 88"><title>Artboard-29</title><g id="Head"><path d="M45,33v.1455a1.9893,1.9893,0,0,0,1.1055,1.7891L47,35.3818V31A2.0027,2.0027,0,0,0,45,33Z" style="fill:#202021"/><path d="M51,41v-.1455a1.99,1.99,0,0,0-1.1055-1.7891L49,38.6182V43A2.0027,2.0027,0,0,0,51,41Z" style="fill:#202021"/><path d="M48,24A13,13,0,1,0,61,37,13.015,13.015,0,0,0,48,24Zm2.7891,13.2764A3.9788,3.9788,0,0,1,53,40.8545V41a4.0039,4.0039,0,0,1-4,4v1a1,1,0,0,1-2,0V45a4.0039,4.0039,0,0,1-4-4,1,1,0,0,1,2,0,2.0027,2.0027,0,0,0,2,2V37.6182l-1.7891-.8946A3.9788,3.9788,0,0,1,43,33.1455V33a4.0039,4.0039,0,0,1,4-4V28a1,1,0,0,1,2,0v1a4.0039,4.0039,0,0,1,4,4,1,1,0,0,1-2,0,2.0027,2.0027,0,0,0-2-2v5.3818Z" style="fill:#202021"/><path d="M48,20A17,17,0,1,0,65,37,17.019,17.019,0,0,0,48,20Zm0,32A15,15,0,1,1,63,37,15.0164,15.0164,0,0,1,48,52Z" style="fill:#202021"/><path d="M61.1641,68.3574a1,1,0,1,1-.7754-1.8437A32.1825,32.1825,0,0,0,79.9209,34.7324l.0005-.0044a32.0573,32.0573,0,0,0-29.6538-29.65A31.7343,31.7343,0,0,0,26.17,13.6016,32.1184,32.1184,0,0,0,16.002,36.6953l-7.834,11.75A1,1,0,0,0,9,50h7v8A11.0125,11.0125,0,0,0,27,69h8a1,1,0,0,1,0,2H28V82a1,1,0,0,0,1,1H65a1,1,0,0,0,1-1V65.85A34.0193,34.0193,0,0,1,61.1641,68.3574ZM29,37A19,19,0,1,1,48,56,19.0216,19.0216,0,0,1,29,37Z" style="fill:#202021"/></g></svg>