<?xml version="1.0" encoding="UTF-8"?>
<!DOCTYPE svg PUBLIC "-//W3C//DTD SVG 1.1//EN" "http://www.w3.org/Graphics/SVG/1.1/DTD/svg11.dtd">
<!-- Creator: CorelDRAW -->
<svg xmlns="http://www.w3.org/2000/svg" xml:space="preserve" width="2048px" height="2048px" style="shape-rendering:geometricPrecision; text-rendering:geometricPrecision; image-rendering:optimizeQuality; fill-rule:evenodd; clip-rule:evenodd"
viewBox="0 0 2048 2048"
 xmlns:xlink="http://www.w3.org/1999/xlink">
 <defs>
  <style type="text/css">
   <![CDATA[
    .fil2 {fill:none}
    .fil1 {fill:#212121;fill-rule:nonzero}
    .fil0 {fill:#66BB6A;fill-rule:nonzero}
   ]]>
  </style>
 </defs>
 <g id="Layer_x0020_1">
  <metadata id="CorelCorpID_0Corel-Layer"/>
  <path class="fil0" d="M1136.31 757.768l343.033 0c48.013,0 91.6465,19.6252 123.262,51.241 31.6158,31.6158 51.241,75.2493 51.241,123.262l0 5.73189 -48 0 0 -5.73189c0,-34.7622 -14.2394,-66.3851 -37.1788,-89.3245 -22.9394,-22.9394 -54.5622,-37.1788 -89.3245,-37.1788l-361.17 0c-11.3221,0.193701 -21.5386,-7.68308 -23.8961,-19.1788l23.511 -4.82126 -23.4378 4.78111c-7.56379,-36.8882 -27.8988,-69.2941 -56.1426,-92.3552 -27.6768,-22.598 -63.0036,-36.1925 -101.389,-36.1925l-333.955 0c-44.1697,0 -84.3426,18.0874 -113.482,47.2264 -29.139,29.139 -47.2264,69.3119 -47.2264,113.482l0 119.294 -48 0 0 -119.294c0,-57.4205 23.4732,-109.604 61.2886,-147.419 37.8154,-37.8154 89.9989,-61.2886 147.419,-61.2886l333.955 0c49.7327,0 95.582,17.6788 131.576,47.0681 31.6429,25.8355 55.6335,60.7583 67.9158,100.699z"/>
  <path class="fil0" d="M1130.5 602.703l320.916 0c45.4748,0 86.7993,18.5858 116.743,48.5304 18.5256,18.5244 32.7047,41.4083 40.8225,66.9308 4.81654,15.1453 15.5681,61.0205 16.363,79.8934 -1.87914,-2.04095 -3.79961,-4.04882 -5.76969,-6.0189 -15.1228,-15.1228 -32.3693,-27.5634 -51.0485,-37.0111 -8.40001,-24.3981 -16.0583,-51.6095 -34.3051,-69.8564 -21.2658,-21.2669 -50.5807,-34.4681 -82.8048,-34.4681l-338.996 0c-20.4343,0.341339 -18.3591,-8.40946 -25.539,-26.6067 -8.09528,-31.2189 -26.1189,-58.5745 -50.4709,-78.4583 -25.7256,-21.0036 -58.5615,-33.639 -94.2461,-33.639l-313.473 0c-41.054,0 -78.3957,16.813 -105.481,43.8992 -9.36969,9.36851 -40.4776,55.6276 -47.8772,68.3599 -13.1622,8.67166 -25.5213,18.7228 -36.8599,30.0614 -11.0634,11.0634 -20.9008,23.0965 -29.4272,35.8996 -0.129921,-11.0847 23.2347,-73.9371 33.8799,-94.4363 15.5976,-30.0402 37.93,-65.4071 46.3465,-73.8225 35.7614,-35.7626 85.1138,-57.9615 139.419,-57.9615l313.473 0c47.0315,0 90.3898,16.7197 124.433,44.5146 29.6481,24.2091 52.193,56.8536 63.9024,94.1894z"/>
  <path class="fil0" d="M1124.69 447.638l298.806 0c42.9366,0 81.9544,17.5488 110.224,45.8185 28.2697,28.2697 45.8185,67.2875 45.8185,110.224l0 25.2118c-14.4591,-13.3358 -30.7382,-24.2351 -48.2422,-32.4296 -1.79528,-26.8299 -13.5213,-51.0756 -31.5142,-69.0686 -19.5933,-19.5933 -46.6004,-31.7563 -76.2863,-31.7563l-316.822 0c-11.3221,0.193701 -21.5386,-7.68308 -23.8961,-19.1788l23.511 -4.82126 -23.4378 4.78111c-6.49725,-31.6843 -23.9669,-59.5229 -48.2327,-79.3359 -23.7721,-19.4103 -54.1193,-31.0866 -87.1016,-31.0866l-292.992 0c-37.9394,0 -72.4489,15.5386 -97.4812,40.5709 -16.7965,16.7965 -29.3197,37.8614 -35.7402,61.3654 -17.791,9.92717 -34.2922,22.3547 -48.9945,37.0571 -1.28976,1.28976 -2.57126,2.69646 -3.83622,4.18465l0 -5.12599c0,-51.1902 20.9244,-97.7103 54.6331,-131.419 33.7087,-33.7087 80.2288,-54.6331 131.419,-54.6331l292.992 0c44.3292,0 85.1989,15.7606 117.288,41.9622 27.652,22.5792 48.75,52.9453 59.8843,87.6792z"/>
  <path class="fil1" d="M280.002 962.002l1488 0c13.2543,0 24,10.7457 24,24l0 744.002c0,13.2543 -10.7457,24 -24,24l-1488 0c-13.2543,0 -24,-10.7457 -24,-24l0 -744.002c0,-13.2543 10.7457,-24 24,-24zm1464 48l-1440 0 0 696.002 1440 0 0 -696.002z"/>
  <path class="fil1" d="M321.437 962.002l48.7217 0 0 24c0,8.74253 2.34095,16.9382 6.42756,24l-96.2942 0c-4.17166,0.0543308 -8.41064,-0.975591 -12.2847,-3.21142 -11.4803,-6.62363 -15.4181,-21.3024 -8.79449,-32.7827l0.0897638 0.0519685 115.087 -199.477c-2.79449,14.4189 -4.23071,29.1827 -4.23071,44.126l0 58.8449 -48.7217 84.4477zm1356.41 0l48.7205 0 -75.8316 -131.436 -1.41142 -33.5185c-0.582284,-13.8319 -3.82323,-29.5193 -6.69804,-43.0878 -3,-14.1555 -6.38741,-29.2807 -10.7728,-43.0689 -4.01693,-12.6295 -9.35198,-24.7595 -15.874,-36.2055l171.599 297.429c2.78622,3.92008 4.42441,8.713 4.42441,13.8874 0,13.2543 -10.7457,24 -24,24l-96.5835 0c4.08662,-7.06182 6.42756,-15.2575 6.42756,-24l0 -24z"/>
  <path class="fil1" d="M704.001 1270l640.001 0c13.2543,0 24,10.7457 24,24l0 128c0,13.2543 -10.7457,24 -24,24l-640.001 0c-13.2543,0 -24,-10.7457 -24,-24l0 -128c0,-13.2543 10.7457,-24 24,-24zm616.001 48l-592.001 0 0 79.9997 592.001 0 0 -79.9997z"/>
 </g>
 <rect class="fil2" width="2048" height="2048"/>
</svg>
